HIERARCHY
ROOT Hips
{
	OFFSET 0.000000 8.830580 0.000000
	CHANNELS 6 Xposition Yposition Zposition Zrotation Yrotation Xrotation 
	JOINT Spine
	{
		OFFSET 0.000000 0.010000 0.000000
		CHANNELS 3 Zrotation Yrotation Xrotation
		JOINT Spine1
		{
			OFFSET 0.000000 2.459130 0.000000
			CHANNELS 3 Zrotation Yrotation Xrotation
			JOINT Neck
			{
				OFFSET 0.000000 2.484630 0.000000
				CHANNELS 3 Zrotation Yrotation Xrotation
				JOINT Head_virtual
				{
					OFFSET 0.000000 0.000000 0.000000
					CHANNELS 3 Zrotation Yrotation Xrotation
					JOINT Head
					{
						OFFSET 0.000000 0.927525 0.000000
						CHANNELS 3 Zrotation Yrotation Xrotation
						End Site
						{
							OFFSET 0.000000 0.000000 0.000000
						}
					}
				}
				JOINT LeftUpArm_virtual
				{
					OFFSET 0.000000 0.000000 0.000000
					CHANNELS 3 Zrotation Yrotation Xrotation
					JOINT LeftUpArm
					{
						OFFSET 1.248820 0.000000 0.000000
						CHANNELS 3 Zrotation Yrotation Xrotation
						JOINT LeftForeArm
						{
							OFFSET 2.597580 0.000000 0.000000
							CHANNELS 3 Zrotation Yrotation Xrotation
							JOINT LeftHand
							{
								OFFSET 2.455420 0.000000 0.000000
								CHANNELS 3 Zrotation Yrotation Xrotation
								End Site
								{
									OFFSET 0.000000 0.000000 0.000000
								}
							}
						}
					}
				}
				JOINT RightUpArm_virtual
				{
					OFFSET -0.000000 -0.000000 -0.000000
					CHANNELS 3 Zrotation Yrotation Xrotation
					JOINT RightUpArm
					{
						OFFSET -1.248820 -0.000000 -0.000000
						CHANNELS 3 Zrotation Yrotation Xrotation
						JOINT RightForeArm
						{
							OFFSET -2.597580 -0.000000 -0.000000
							CHANNELS 3 Zrotation Yrotation Xrotation
							JOINT RightHand
							{
								OFFSET -2.455420 -0.000000 -0.000000
								CHANNELS 3 Zrotation Yrotation Xrotation
								End Site
								{
									OFFSET 0.000000 0.000000 0.000000
								}
							}
						}
					}
				}
			}
		}
	}
	JOINT LeftUpLeg
	{
		OFFSET 1.271939 0.000000 0.000000
		CHANNELS 3 Zrotation Yrotation Xrotation
		JOINT LeftLowLeg
		{
			OFFSET 0.000000 -4.342910 0.000000
			CHANNELS 3 Zrotation Yrotation Xrotation
			JOINT LeftFoot
			{
				OFFSET 0.000000 -4.487670 0.000000
				CHANNELS 3 Zrotation Yrotation Xrotation
				JOINT LeftToeBase
				{
					OFFSET 0.000000 0.000000 1.515070
					CHANNELS 3 Zrotation Yrotation Xrotation
					End Site
					{
						OFFSET 0.000000 0.000000 0.000000
					}
				}
			}
		}
	}
	JOINT RightUpLeg
	{
		OFFSET -1.271939 0.000000 0.000000
		CHANNELS 3 Zrotation Yrotation Xrotation
		JOINT RightLowLeg
		{
			OFFSET 0.000000 -4.342910 0.000000
			CHANNELS 3 Zrotation Yrotation Xrotation
			JOINT RightFoot
			{
				OFFSET 0.000000 -4.487670 0.000000
				CHANNELS 3 Zrotation Yrotation Xrotation
				JOINT RightToeBase
				{
					OFFSET 0.000000 0.000000 1.515070
					CHANNELS 3 Zrotation Yrotation Xrotation
					End Site
					{
						OFFSET 0.000000 0.000000 0.000000
					}
				}
			}
		}
	}
}
MOTION
Frames: 13
Frame Time: 0.041667
-16.831996 5.737669 40.699216 -174.132379 5.749758 158.177124 2.302086 7.812262 2.197435 10.367322 -11.111627 49.376880 0.000000 0.000000 0.000000 -24.607541 5.318612 -54.002213 9.967979 -16.910913 -71.829467 -29.875900 -16.410000 3.592860 -5.646440 -40.263599 25.598400 0.000000 -66.230202 0.000000 29.016199 -11.035800 -0.630072 19.063801 9.541170 4.720090 16.583000 54.657001 2.757010 0.000000 59.462399 0.000000 -21.318600 -1.367000 9.225720 -12.345533 16.744156 -49.444453 0.000000 0.000000 61.449902 -20.216340 -13.448092 22.986013 0.000000 0.000000 -29.307400 18.499979 -1.877264 -48.273072 0.000000 0.000000 73.225700 29.993618 15.814870 20.924880 0.000000 0.000000 -34.895700 
-16.832457 5.743363 40.687560 -174.159095 5.729538 158.654675 2.259492 7.788283 2.596689 10.500757 -11.069422 49.306155 0.000000 0.000000 0.000000 -24.792265 5.047187 -54.432190 9.942643 -16.972645 -71.870323 -28.832800 -16.648800 2.946810 -8.054510 -40.017502 25.056801 0.000000 -63.573399 0.000000 29.171000 -10.843400 -1.225590 19.296301 9.522260 4.532860 17.100599 54.507301 3.517430 0.000000 56.447700 0.000000 -23.868401 -1.624770 12.575700 -12.425848 16.592626 -49.806418 0.000000 0.000000 61.474201 -20.793059 -13.352762 22.716456 0.000000 0.000000 -29.992600 18.653134 -1.981245 -48.604443 0.000000 0.000000 73.254303 29.002436 15.096968 20.222859 0.000000 0.000000 -35.243099 
-16.831204 5.750624 40.674953 -174.125177 5.638988 159.291186 2.225251 7.771842 2.772739 10.574665 -11.066871 49.367385 0.000000 0.000000 0.000000 -25.097207 4.750042 -54.885709 10.211077 -16.992242 -71.918215 -28.920601 -16.708799 2.600190 -8.584130 -39.966000 24.252600 0.000000 -61.370098 0.000000 29.160500 -10.044100 -2.441940 19.210199 9.607540 4.168680 18.005600 54.273201 4.155890 0.000000 53.918400 0.000000 -24.364500 -2.332900 13.867100 -12.528769 16.355590 -50.344092 0.000000 0.000000 61.485298 -20.938433 -13.561200 22.747250 0.000000 0.000000 -30.412100 18.893142 -2.183189 -49.034878 0.000000 0.000000 73.136002 27.851806 14.093943 19.737339 0.000000 0.000000 -35.494101 
-16.831734 5.757510 40.663103 -174.123856 5.528459 159.868111 2.471935 8.041815 3.019611 10.032420 -11.133335 49.453733 0.000000 0.000000 0.000000 -24.868418 5.169534 -55.470774 9.904637 -17.188154 -71.835666 -28.955400 -16.663799 1.707320 -9.206630 -39.938702 24.268499 0.000000 -59.378601 0.000000 29.068899 -9.255560 -3.540580 19.498899 9.826870 5.375730 16.660999 54.291500 2.189460 0.000000 51.857201 0.000000 -23.970100 -3.096370 14.354300 -12.719763 16.153339 -50.838821 0.000000 0.000000 61.419899 -20.629794 -13.587062 22.997656 0.000000 0.000000 -30.210400 19.099501 -2.440957 -49.428779 0.000000 0.000000 72.943001 26.759270 13.122900 19.717620 0.000000 0.000000 -35.816601 
-16.831702 5.764950 40.650840 -174.076341 5.347111 160.463813 2.521006 8.008794 3.302102 10.027762 -11.133761 49.298486 0.000000 0.000000 0.000000 -24.961273 5.015354 -55.290422 10.105984 -17.052152 -72.376391 -28.731600 -16.892200 1.352630 -10.281100 -39.673801 23.729601 0.000000 -57.565800 0.000000 28.931801 -8.299930 -4.828870 19.869499 9.658030 5.703610 16.124001 54.473499 2.146820 0.000000 49.594501 0.000000 -23.944700 -2.880510 15.098700 -12.912993 15.878344 -51.357172 0.000000 0.000000 61.304001 -20.055316 -13.302647 23.427604 0.000000 0.000000 -29.973000 19.361646 -2.811614 -49.863933 0.000000 0.000000 72.751503 25.171337 12.667270 19.812849 0.000000 0.000000 -36.066099 
-16.830501 5.772686 40.641190 -174.028670 5.241600 161.303660 2.473284 7.949809 3.350950 10.122434 -11.118507 49.201948 0.000000 0.000000 0.000000 -24.979316 4.860444 -55.417747 10.059388 -17.141134 -72.303145 -28.672899 -17.025700 1.650490 -10.561800 -39.629799 22.311800 0.000000 -56.052799 0.000000 28.764500 -7.493770 -5.852090 19.790001 9.515330 5.247710 17.176300 54.521301 3.325880 0.000000 47.847198 0.000000 -23.051100 -3.760360 15.435500 -13.194912 15.672333 -52.159849 0.000000 0.000000 61.191799 -19.385427 -12.986901 23.918883 0.000000 0.000000 -29.712000 19.655429 -2.997466 -50.563111 0.000000 0.000000 72.591202 23.215552 12.785005 19.854700 0.000000 0.000000 -34.655600 
-16.829968 5.780457 40.631310 -173.983323 5.200763 161.858611 2.752178 8.167814 3.683112 9.711545 -11.124746 49.117327 0.000000 0.000000 0.000000 -24.746674 5.151292 -55.289922 9.896761 -17.109384 -72.704844 -28.139099 -17.105700 0.776737 -12.074900 -39.417301 22.431801 0.000000 -54.702099 0.000000 28.643499 -6.615220 -7.165350 20.404100 9.439290 6.301010 15.475500 54.943001 2.181990 0.000000 46.190899 0.000000 -22.624399 -3.917230 16.549801 -13.472636 15.665285 -52.686173 0.000000 0.000000 61.122299 -18.268789 -12.858154 24.154982 0.000000 0.000000 -29.654900 19.894635 -3.139841 -50.999191 0.000000 0.000000 72.513802 21.724498 12.804843 19.916954 0.000000 0.000000 -33.064100 
-16.827186 5.787858 40.621879 -173.975223 5.175404 162.393512 2.961275 8.401933 4.061149 9.288148 -11.115066 48.960727 0.000000 0.000000 0.000000 -24.324492 5.672448 -55.062798 9.467814 -17.069451 -73.190916 -28.400200 -16.997101 1.394100 -11.308000 -39.646702 21.006100 0.000000 -53.699100 0.000000 28.099199 -5.251750 -8.531820 20.151699 9.549240 5.851600 17.260401 54.801102 3.535310 0.000000 44.642799 0.000000 -22.339899 -3.670400 17.705900 -13.782526 15.704436 -53.191998 0.000000 0.000000 61.069599 -16.643761 -12.915263 24.207077 0.000000 0.000000 -29.566600 19.960882 -3.054887 -51.376296 0.000000 0.000000 72.416801 21.407693 12.802251 19.904127 0.000000 0.000000 -31.150400 
-16.826716 5.795497 40.613436 -173.997214 5.104597 163.189986 3.092986 8.574165 4.183528 8.908811 -11.136779 48.834941 0.000000 0.000000 0.000000 -24.057848 6.023846 -54.942679 9.230663 -17.055374 -73.471295 -27.942499 -17.037001 1.267730 -12.000100 -39.542301 20.326799 0.000000 -53.022301 0.000000 27.446301 -3.901470 -9.753320 20.225800 9.546880 5.047370 19.011101 54.695202 5.318040 0.000000 43.344299 0.000000 -22.079800 -3.919610 18.808500 -14.251551 15.646818 -53.908659 0.000000 0.000000 60.929298 -15.150914 -12.780011 24.197809 0.000000 0.000000 -29.262700 19.907513 -2.880597 -52.077426 0.000000 0.000000 72.423698 21.573514 12.873714 19.902750 0.000000 0.000000 -29.170600 
-16.826349 5.804284 40.604818 -174.004321 5.030456 163.815507 3.477460 8.952711 4.441649 8.113508 -11.200871 48.835530 0.000000 0.000000 0.000000 -23.575219 6.776263 -54.913893 8.795514 -17.063615 -73.817434 -27.754999 -16.924200 1.399680 -11.736900 -39.746799 19.563400 0.000000 -52.473400 0.000000 26.624300 -2.435220 -10.967600 20.091000 9.680280 4.442970 21.093700 54.466702 6.449050 0.000000 42.292900 0.000000 -21.673901 -3.951320 19.142799 -14.675730 15.635719 -54.429781 0.000000 0.000000 60.783901 -13.738379 -12.621337 24.135967 0.000000 0.000000 -29.136700 19.870263 -2.889378 -52.580699 0.000000 0.000000 72.397598 22.075913 13.046765 19.968733 0.000000 0.000000 -27.749900 
-16.826142 5.812822 40.597315 -174.066608 4.999977 164.456692 3.632107 9.191190 4.715447 7.699329 -11.204383 48.757796 0.000000 0.000000 0.000000 -23.280172 7.206204 -54.848650 8.603773 -17.074596 -74.079159 -28.903799 -16.601700 3.577110 -8.336130 -40.598000 16.691601 0.000000 -52.083801 0.000000 25.778700 -0.756020 -12.661400 20.189301 9.617850 4.262880 22.004999 54.480000 6.938560 0.000000 41.545898 0.000000 -21.202900 -4.268730 18.803900 -15.136646 15.656520 -54.936370 0.000000 0.000000 60.582001 -12.152035 -12.540940 23.954347 0.000000 0.000000 -28.604900 19.767285 -2.789353 -53.113162 0.000000 0.000000 72.395401 23.090773 13.200697 20.345517 0.000000 0.000000 -27.151700 
-16.827731 5.821360 40.590915 -174.082237 5.014357 165.125786 4.046707 9.550939 5.000964 6.972941 -11.228960 48.666028 0.000000 0.000000 0.000000 -22.915297 7.782428 -54.617370 8.432630 -17.024258 -74.538112 -26.970699 -16.938801 0.962215 -12.676400 -39.776600 19.089600 0.000000 -51.569500 0.000000 25.160500 0.123779 -13.298900 21.255301 9.381000 5.651650 19.601400 55.222301 5.249380 0.000000 41.053501 0.000000 -20.567301 -5.037790 17.064100 -15.552685 15.653461 -55.478705 0.000000 0.000000 60.408501 -10.565154 -12.410458 23.752264 0.000000 0.000000 -28.006900 19.765127 -2.766654 -53.638312 0.000000 0.000000 72.317497 23.235093 13.482935 20.313709 0.000000 0.000000 -26.120800 
-16.827319 5.830403 40.581292 -174.140844 5.008075 165.676986 4.101263 9.660697 5.341362 6.749084 -11.247784 48.538917 0.000000 0.000000 0.000000 -22.799334 8.029832 -54.252954 8.436887 -16.891497 -74.954674 -27.684700 -16.766899 2.611280 -10.377300 -40.343300 17.175800 0.000000 -51.245602 0.000000 24.562300 1.685500 -15.543000 20.380800 9.563100 3.935260 23.793301 54.318901 8.561050 0.000000 40.904900 0.000000 -20.458000 -5.201930 15.658100 -15.966830 15.656246 -55.887343 0.000000 0.000000 60.220200 -9.025761 -12.302931 23.554115 0.000000 0.000000 -27.180000 19.770138 -2.819769 -54.030581 0.000000 0.000000 72.227600 23.487645 13.685930 20.355484 0.000000 0.000000 -25.725400 
